<svg xmlns="http://www.w3.org/2000/svg" viewBox="0 0 64 64" role="img" aria-labelledby="nelo-title"><title id="nelo-title">Nelo</title><defs><linearGradient id="b" x1="10" y1="10" x2="38" y2="55" gradientUnits="userSpaceOnUse"><stop stop-color="#3b91f6"/><stop offset="1" stop-color="#2768d8"/></linearGradient><linearGradient id="m" x1="32" y1="8" x2="54" y2="54" gradientUnits="userSpaceOnUse"><stop stop-color="#7ce0cb"/><stop offset="1" stop-color="#4fbaa7"/></linearGradient><linearGradient id="n" x1="18" y1="13" x2="50" y2="54" gradientUnits="userSpaceOnUse"><stop stop-color="#193f79"/><stop offset="1" stop-color="#102a55"/></linearGradient></defs><rect x="3" y="3" width="58" height="58" rx="16" fill="#0f1725"/><path d="M17 14c-3.5 0-6 2.5-6 6v28c0 4.2 4.8 6.5 8 3.8l13-10.9V28.5L22.5 18C20.8 15.4 19.2 14 17 14Z" fill="url(#b)"/><path d="M47 14c3.5 0 6 2.5 6 6v28c0 4.2-4.8 6.5-8 3.8L32 40.9V28.5L41.5 18c1.7-2.6 3.3-4 5.5-4Z" fill="url(#m)"/><path d="M22.5 18 53 47.2V20c0-3.5-2.5-6-6-6-2.2 0-3.8 1.4-5.5 4L32 28.5Z" fill="url(#n)"/></svg>