<svg xmlns="http://www.w3.org/2000/svg" viewBox="0 0 512 512" role="img"><title>Nelo color icon on dark</title><defs><linearGradient id="bg" x2="1" y2="1"><stop stop-color="#172C47"/><stop offset="1" stop-color="#0B1728"/></linearGradient><linearGradient id="blue" x2="1" y2="1"><stop stop-color="#3183EA"/><stop offset="1" stop-color="#2368D0"/></linearGradient><linearGradient id="mint" x2="1" y2="1"><stop stop-color="#6ED2BE"/><stop offset="1" stop-color="#4DB9A7"/></linearGradient><linearGradient id="navy" x2="1" y2="1"><stop stop-color="#173E77"/><stop offset="1" stop-color="#102C58"/></linearGradient></defs><rect x="38" y="32" width="436" height="436" rx="94" fill="url(#bg)"/><g transform="translate(92 76) scale(1.12)"><path d="M86 52Q58 52 58 80V304Q58 329 79 315L148 260V121L104 77Q96 52 86 52Z" fill="url(#blue)"/><path d="M208 66L148 121V260L215 315Q236 329 236 304V80Q236 50 208 66Z" fill="url(#mint)"/><path d="M104 77L236 209V304Q236 329 215 315L58 158V80Q58 52 86 52Q96 52 104 77Z" fill="url(#navy)"/></g></svg>