<svg xmlns="http://www.w3.org/2000/svg" width="1120" height="420" viewBox="0 0 1120 420" role="img" aria-labelledby="title desc"><title id="title">Nelo</title><desc id="desc">Nelo logo with the tagline Every request owns its work.</desc><defs><linearGradient id="blue" x1="58" y1="52" x2="150" y2="316" gradientUnits="userSpaceOnUse"><stop stop-color="#3183EA"/><stop offset="1" stop-color="#2368D0"/></linearGradient><linearGradient id="mint" x1="148" y1="72" x2="236" y2="316" gradientUnits="userSpaceOnUse"><stop stop-color="#6ED2BE"/><stop offset="1" stop-color="#4DB9A7"/></linearGradient><linearGradient id="navy" x1="88" y1="78" x2="230" y2="312" gradientUnits="userSpaceOnUse"><stop stop-color="#173E77"/><stop offset="1" stop-color="#102C58"/></linearGradient></defs><g transform="translate(24 18) scale(.92)"><path d="M86 52Q58 52 58 80V304Q58 329 79 315L148 260V121L104 77Q96 52 86 52Z" fill="url(#blue)"/><path d="M208 66L148 121V260L215 315Q236 329 236 304V80Q236 50 208 66Z" fill="url(#mint)"/><path d="M104 77L236 209V304Q236 329 215 315L58 158V80Q58 52 86 52Q96 52 104 77Z" fill="url(#navy)"/></g><text x="392" y="224" fill="#F7FAFC" font-family="Inter,ui-sans-serif,system-ui,-apple-system,BlinkMacSystemFont,'Segoe UI',sans-serif" font-size="176" font-weight="650" letter-spacing="-9">Nelo</text><text x="398" y="294" fill="#A8B3C1" font-family="Inter,ui-sans-serif,system-ui,-apple-system,BlinkMacSystemFont,'Segoe UI',sans-serif" font-size="39" font-weight="500" letter-spacing="-.4">Every request owns its work.</text></svg>