<svg xmlns="http://www.w3.org/2000/svg" viewBox="0 0 512 512" role="img" aria-labelledby="title">
  <title id="title">Nelo color icon on dark</title>
  <defs>
    <linearGradient id="bg" x1="38" y1="32" x2="474" y2="468" gradientUnits="userSpaceOnUse"><stop stop-color="#172C47"/><stop offset="1" stop-color="#0B1728"/></linearGradient>
    <linearGradient id="blue" x1="64" y1="50" x2="148" y2="306" gradientUnits="userSpaceOnUse"><stop stop-color="#3183EA"/><stop offset="1" stop-color="#2368D0"/></linearGradient>
    <linearGradient id="mint" x1="223" y1="50" x2="304" y2="260" gradientUnits="userSpaceOnUse"><stop stop-color="#6ED2BE"/><stop offset="1" stop-color="#4DB9A7"/></linearGradient>
    <linearGradient id="navy" x1="99" y1="65" x2="285" y2="311" gradientUnits="userSpaceOnUse"><stop stop-color="#173E77"/><stop offset="1" stop-color="#102C58"/></linearGradient>
  </defs>
  <rect x="38" y="32" width="436" height="436" rx="94" fill="url(#bg)"/>
  <g transform="translate(130 108) scale(1.05) translate(-64 -50)">
    <path d="M83 50C72 50 64 58 64 70V292C64 307 79 315 91 306L148 262V114L99 65C95 56 90 50 83 50Z" fill="url(#blue)"/>
    <path d="M285 50C296 50 304 56 304 68V260L223 180V101L273 59C277 53 281 50 285 50Z" fill="url(#mint)"/>
    <path d="M99 65L304 260V285C304 301 294 311 278 311C267 311 260 307 253 300L148 207V114L99 65Z" fill="url(#navy)"/>
  </g>
</svg>
